PathFileType	3	(X/Y/Z)	C:\Users\dbak576\Desktop\Duncan Bakke Modelling Files\Output\AB08\_12Mar_ss_12ms_01\AB08_12Mar_ss_12ms_01.trc
DataRate	CameraRate	NumFrames	NumMarkers	Units	OrigDataRate	OrigDataStartFrame	OrigNumFrames
200.0	200.0	5	42	mm	200.0	4576	3036	
Frame#	Time	LASI			RASI			LPSI			RPSI			LTH1			LTH2			LTH3			LTH4			LMFC			LLFC			LTB1			LTB2			LTB3			LTB4			LMMAL			LLMAL			LCAL			LToe			LMT1			LMT5			RTH1			RTH2			RTH3			RTH4			RMFC			RLFC			RTB1			RTB2			RTB3			RTB4			RMMAL			RLMAL			RCAL			RToe			RMT1			RMT5			C7			T10			LACR1			RACR1			CLAV			RBack			
		X1	Y1	Z1	X2	Y2	Z2	X3	Y3	Z3	X4	Y4	Z4	X5	Y5	Z5	X6	Y6	Z6	X7	Y7	Z7	X8	Y8	Z8	X9	Y9	Z9	X10	Y10	Z10	X11	Y11	Z11	X12	Y12	Z12	X13	Y13	Z13	X14	Y14	Z14	X15	Y15	Z15	X16	Y16	Z16	X17	Y17	Z17	X18	Y18	Z18	X19	Y19	Z19	X20	Y20	Z20	X21	Y21	Z21	X22	Y22	Z22	X23	Y23	Z23	X24	Y24	Z24	X25	Y25	Z25	X26	Y26	Z26	X27	Y27	Z27	X28	Y28	Z28	X29	Y29	Z29	X30	Y30	Z30	X31	Y31	Z31	X32	Y32	Z32	X33	Y33	Z33	X34	Y34	Z34	X35	Y35	Z35	X36	Y36	Z36	X37	Y37	Z37	X38	Y38	Z38	X39	Y39	Z39	X40	Y40	Z40	X41	Y41	Z41	X42	Y42	Z42	
4576	22.87	331.35495	969.65845	-914.97723	589.12775	981.47961	-906.48779	400.42963	996.23737	-692.19464	525.04352	988.85602	-685.88141	333.09393	688.01514	-948.29443	324.49304	654.1828	-929.37671	376.10046	612.08533	-926.50696	357.3801	647.04755	-938.64746	447.49588	516.11359	-862.19641	319.10617	516.57666	-844.95081	300.31949	414.71957	-816.49506	306.17215	332.68069	-797.68384	327.74127	325.51114	-846.5011	318.2565	365.17276	-844.73193	432.95953	120.25196	-783.65839	345.80774	114.83424	-768.88708	386.94788	56.817566	-687.09436	401.94095	40.168064	-992.86591	433.01282	45.449226	-901.0047	310.08008	41.122528	-883.13788	629.71637	738.02441	-1010.7692	628.14294	672.35651	-1024.4503	670.3551	642.78619	-991.24609	669.3028	700.40564	-981.48761	546.45465	527.24939	-1009.9758	670.91547	540.81439	-964.6629	669.07306	431.88095	-926.01331	652.98767	396.63861	-916.23016	635.38385	355.02307	-893.08282	662.97717	379.98175	-853.54376	528.78442	219.60045	-751.42603	612.74164	225.66995	-712.3385	551.15472	222.25723	-627.01349	572.66296	38.042248	-863.90802	535.35577	83.67765	-786.09778	648.87152	100.83981	-762.90576	430.58801	1497.3213	-761.88141	427.77188	1244.4819	-689.74335	269.26334	1462.861	-841.66418	594.00732	1468.0482	-805.1618	445.77277	1424.5164	-912.81	550.18506	1397.77	-693.32397
4577	22.875	331.10321	969.8504	-913.71722	588.60742	981.6178	-905.83044	400.65182	996.28693	-691.08594	525.42847	989.17987	-684.50928	333.12549	687.13885	-945.03894	324.42978	653.34399	-925.71185	376.05209	611.4104	-922.59332	357.36441	646.21057	-935.00787	447.28076	515.69434	-858.60468	319.58575	516.41132	-840.23358	300.43774	414.69315	-811.58759	306.39697	332.77686	-792.22107	327.93286	325.40396	-841.10333	318.53699	365.1774	-839.62628	433.02304	120.75217	-778.11487	345.99673	114.94157	-762.90271	387.07953	56.958767	-680.99963	401.96396	40.109222	-986.85522	433.06921	45.450916	-894.82404	310.10153	41.104233	-876.99017	628.53571	740.4552	-1012.3204	626.92151	674.93695	-1026.521	669.422	645.12744	-993.97797	668.32349	702.65271	-983.70892	545.5191	529.98621	-1012.5624	670.22339	542.80493	-968.2984	668.45679	432.76199	-931.87238	652.74585	397.60474	-922.64459	634.83014	355.11304	-900.71075	662.90515	379.15237	-860.80402	529.2854	215.94051	-762.25409	613.18494	220.8183	-722.97546	551.53204	215.05891	-637.24005	572.70599	38.239677	-879.87421	535.67145	81.504265	-801.50604	649.21588	97.789886	-777.69202	430.64999	1497.5355	-761.78247	427.46646	1244.8046	-689.24084	269.53821	1463.0703	-841.97888	594.18671	1467.9413	-804.57977	446.21869	1424.4124	-912.58112	549.80902	1398.0325	-692.74475
4578	22.88	330.95383	969.98682	-912.65106	588.13959	981.74878	-905.15424	400.90665	996.26068	-689.98694	525.81598	989.39276	-683.30505	333.04672	686.25519	-941.80688	324.42105	652.75244	-922.15228	376.022	610.68744	-918.78821	357.25888	645.40918	-931.42267	447.27029	515.08887	-854.36853	319.69971	516.32025	-835.68616	300.75882	414.75955	-806.49744	306.60147	332.99863	-787.0484	328.17722	325.1781	-835.92828	318.15549	364.96365	-833.87878	432.97372	120.73396	-771.30115	346.09955	115.07254	-756.85645	387.2038	57.061729	-674.88373	401.51523	39.522095	-980.50397	433.17053	45.444519	-888.80505	310.1456	41.139729	-870.87616	627.14722	742.77649	-1013.64	625.73651	677.41309	-1028.6327	668.3493	647.33337	-996.67603	667.38049	704.86023	-985.90454	544.37183	532.54559	-1014.95	669.4884	544.70282	-971.76331	667.9519	433.62537	-937.58405	652.30896	398.07526	-929.26099	634.51221	355.16998	-908.23273	662.9101	378.2439	-867.8125	529.81891	212.18677	-773.15533	613.54901	215.83595	-733.91125	552.10083	207.2697	-648.1767	573.16248	38.735077	-896.7771	536.13574	79.447861	-816.81512	649.66986	94.766373	-792.50171	430.7977	1497.6449	-761.71545	427.13269	1245.0907	-688.67841	269.82617	1463.2856	-842.35065	594.31873	1467.7622	-804.00806	446.63913	1424.271	-912.35913	549.40063	1398.2322	-692.14142
4579	22.885	330.56342	969.74207	-910.72717	587.55432	981.81024	-904.48621	401.15948	996.35126	-688.99567	525.93457	989.57056	-683.18091	332.99417	685.36334	-938.5423	324.35181	652.06158	-918.7334	375.9592	610.07367	-914.8905	357.16962	644.62488	-927.90265	447.38165	514.71692	-850.2821	319.93649	516.19031	-831.01434	301.06799	414.79279	-801.59607	306.75311	332.99695	-781.80115	328.32339	325.3324	-830.72754	318.57901	364.85654	-828.87805	433.39014	120.49004	-765.71234	346.27133	115.2546	-750.95331	387.255	57.196537	-668.82391	401.89441	39.780907	-974.65344	433.09091	45.426613	-882.69171	310.16333	41.208302	-864.84784	625.83124	745.0423	-1015.0775	624.22913	679.802	-1030.4401	667.3606	649.55469	-999.17499	666.38196	706.92365	-987.86493	543.34332	535.00513	-1017.0869	668.78131	546.54669	-974.92755	667.27643	434.29779	-943.255	651.18591	398.45081	-936.04144	634.91138	355.50067	-916.05347	662.69495	377.22293	-874.98395	530.27844	208.47821	-784.21332	613.99707	210.84354	-744.94427	552.68097	199.20656	-659.90991	573.03076	39.498493	-913.6228	536.70886	77.782631	-833.23438	650.16278	91.808372	-807.41748	430.87976	1497.7787	-761.67645	426.94803	1245.344	-688.24359	270.15738	1463.421	-842.72302	594.52155	1467.5708	-803.49194	447.15298	1424.1233	-912.14581	549.0929	1398.3872	-691.57813
4580	22.89	330.51816	970.15558	-910.51343	587.05988	981.91071	-903.8175	401.30005	996.30029	-688.04541	526.16119	989.79749	-681.57709	332.77347	684.43323	-935.35236	324.18942	651.3587	-915.12842	376.00806	609.27667	-910.86316	357.04199	643.69989	-924.4129	447.34695	514.15515	-845.95319	320.01083	516.09869	-826.4032	301.15097	414.83261	-796.75446	306.84512	333.2218	-776.7146	328.45129	325.13559	-825.39545	318.64832	364.81082	-823.91699	433.48883	120.55562	-759.69635	346.37656	115.40074	-744.92706	387.2713	57.291721	-662.76514	401.95419	39.704849	-968.62201	433.11548	45.338154	-876.63702	309.97806	41.355515	-858.67169	624.36041	747.11682	-1016.2041	622.73163	681.95892	-1032.027	666.30286	651.63062	-1001.5861	665.2793	708.90961	-989.8432	542.18335	537.25757	-1018.9807	668.0614	548.35028	-977.87244	666.71002	435.07449	-948.72479	650.05023	398.8103	-942.53168	634.0318	354.86035	-923.10632	662.61945	376.06476	-882.02783	530.77527	204.69193	-795.52289	614.42194	205.92618	-756.12115	552.96136	191.58025	-671.23944	574.73163	40.207504	-930.05731	537.38745	75.871773	-848.79816	651.13379	89.035835	-822.13623	431.02029	1497.8087	-761.59937	426.71201	1245.5902	-687.77094	270.47296	1463.5472	-843.12305	594.724	1467.3182	-802.97168	447.54922	1423.8478	-911.88013	548.78381	1398.5256	-691.0188
